<?xml version="1.0" encoding="utf-8"?><svg version="1.1" id="Layer_1" xmlns="http://www.w3.org/2000/svg" xmlns:xlink="http://www.w3.org/1999/xlink" x="0px" y="0px" viewBox="0 0 119.14 122.88" style="enable-background:new 0 0 119.14 122.88" xml:space="preserve"><g><path d="M42.82,67.51c-0.15-0.07-0.33-0.18-0.48-0.3c-1.95-1.55-4.09-3.28-5.94-4.8c-2.69-2.21-5.79-4.76-7.97-6.57 c-1.48-1.22-3.17-2.07-4.76-2.4c-1.03-0.18-1.96-0.18-2.69,0.11c-0.59,0.26-1.11,0.74-1.44,1.48c-0.44,1-0.66,2.4-0.55,4.32 c0.11,1.7,0.7,3.54,1.48,5.35c1.14,2.62,2.73,5.05,3.91,6.6c0.07,0.11,0.15,0.18,0.18,0.3l23.35,33.35c0.3,0.44,0.48,0.92,0.52,1.4 c0.48,3.84,1.29,6.75,2.47,8.56c0.88,1.33,1.99,1.99,3.43,1.95h36.74c2.29-0.04,4.35-0.7,6.27-2.03c2.1-1.44,3.98-3.69,5.72-6.71 c0.04-0.04,0.07-0.11,0.11-0.15c0.66-1.14,1.55-2.62,2.4-4.02c3.73-6.12,6.97-11.47,7.34-19.07l-0.22-10.48 c-0.04-0.15-0.04-0.29-0.04-0.44c0-0.15,0-1.14,0.04-2.47c0.07-6.93,0.18-15.49-6.16-16.56h-4.09c-0.04,1.95-0.15,3.95-0.26,5.87 c-0.11,1.73-0.22,3.36-0.22,4.94c0,1.7-1.36,3.06-3.06,3.06c-1.7,0-3.06-1.36-3.06-3.06c0-1.59,0.11-3.43,0.22-5.35 c0.41-6.53,0.89-14.02-4.32-14.94h-4.06c-0.22,0-0.44-0.04-0.66-0.07c0.04,2.36-0.11,4.8-0.26,7.16c-0.11,1.73-0.22,3.36-0.22,4.94 c0,1.7-1.37,3.06-3.06,3.06c-1.7,0-3.06-1.36-3.06-3.06c0-1.59,0.11-3.43,0.22-5.35c0.41-6.53,0.88-14.02-4.32-14.94h-4.06 c-0.3,0-0.55-0.04-0.81-0.11v11.92c0,1.7-1.36,3.06-3.06,3.06c-1.7,0-3.06-1.37-3.06-3.06V17.01c0-5.35-2.18-8.74-4.98-10.14 c-1.03-0.52-2.14-0.77-3.21-0.77c-1.07,0-2.18,0.26-3.21,0.77c-2.77,1.4-4.91,4.8-4.91,10.29v56.03c0,1.7-1.36,3.06-3.06,3.06 c-1.7,0-3.06-1.37-3.06-3.06v-5.68H42.82L42.82,67.51z M21.16,30.41c-0.99,1.04-2.64,1.08-3.69,0.09 c-1.04-0.99-1.08-2.64-0.09-3.69l7.37-7.71H2.61C1.17,19.11,0,17.94,0,16.49c0-1.44,1.17-2.61,2.61-2.61h22.14l-7.38-7.75 c-0.99-1.04-0.95-2.69,0.09-3.69c1.04-0.99,2.69-0.95,3.69,0.09l11.58,12.16c0.95,1,0.96,2.58,0,3.6L21.16,30.41L21.16,30.41z M71.44,31.13c0.26-0.07,0.52-0.11,0.81-0.11h4.24c0.22,0,0.48,0.04,0.7,0.07c5.64,0.89,8.19,4.17,9.22,8.45 c0.41-0.18,0.85-0.3,1.29-0.3h4.24c0.22,0,0.48,0.04,0.7,0.07c6.09,0.96,8.52,4.68,9.41,9.41c0.15-0.04,0.3-0.04,0.48-0.04h4.24 c0.22,0,0.48,0.04,0.7,0.07c11.66,1.81,11.51,13.39,11.4,22.72v2.43l0.26,10.77v0.33c-0.44,9.19-4.06,15.12-8.23,21.99 c-0.7,1.14-1.4,2.32-2.36,3.95c-0.04,0.04-0.04,0.07-0.07,0.11c-2.18,3.8-4.68,6.71-7.56,8.71c-2.91,2.03-6.16,3.06-9.7,3.1h-36.7 c-3.65,0.07-6.49-1.51-8.6-4.65c-1.7-2.51-2.8-6.05-3.39-10.48L19.65,75.07l-0.11-0.11c-1.36-1.81-3.21-4.65-4.61-7.78 c-1.03-2.36-1.81-4.91-1.99-7.41c-0.18-2.99,0.22-5.35,1.07-7.23c1.03-2.32,2.73-3.84,4.76-4.65c1.88-0.77,4.02-0.89,6.16-0.44 c2.58,0.52,5.24,1.81,7.49,3.69c1.84,1.55,4.94,4.06,7.97,6.53l2.51,2.07V17.19c0-8.15,3.62-13.39,8.3-15.75 C53.07,0.48,55.1,0,57.17,0c2.07,0,4.09,0.48,5.98,1.44c4.69,2.36,8.37,7.64,8.37,15.64v14.09L71.44,31.13L71.44,31.13z"/></g></svg>